<?xml version="1.0" standalone="no"?>
<!DOCTYPE svg PUBLIC "-//W3C//DTD SVG 20010904//EN"
 "http://www.w3.org/TR/2001/REC-SVG-20010904/DTD/svg10.dtd">
<svg version="1.0" xmlns="http://www.w3.org/2000/svg"
 width="36.000000pt" height="36.000000pt" viewBox="0 0 36.000000 36.000000"
 preserveAspectRatio="xMidYMid meet">

<g transform="translate(0.000000,36.000000) scale(0.100000,-0.100000)"
fill="#aaaaaaff" stroke="none">
<path d="M238 349 c-10 -5 -18 -7 -18 -4 0 3 -22 -6 -50 -20 -27 -14 -56 -25
-64 -25 -8 0 -33 -16 -56 -35 -23 -19 -39 -35 -35 -35 4 0 21 11 37 25 17 14
33 23 37 20 3 -4 -2 -12 -12 -19 -9 -7 -17 -17 -17 -21 0 -5 9 0 20 10 11 10
20 24 20 32 0 8 5 11 10 8 6 -4 10 -12 8 -18 -2 -13 9 -78 19 -112 5 -17 4
-18 -11 -6 -9 7 -17 23 -17 35 -1 18 -2 18 -6 3 -6 -22 25 -60 43 -53 22 8 24
-7 3 -22 -21 -14 -21 -15 17 -33 42 -20 69 -25 44 -9 -13 8 -13 10 2 10 9 0
20 -5 23 -10 4 -6 12 -10 18 -9 29 3 39 -2 33 -17 -5 -12 -2 -15 10 -10 8 3
20 6 25 6 5 0 7 11 3 25 -6 26 9 35 22 14 5 -8 10 -6 16 6 18 31 -7 37 -37 9
-17 -16 -31 -22 -33 -15 -2 6 -8 8 -14 5 -11 -7 -58 34 -58 50 0 6 5 5 12 -2
32 -32 75 3 44 37 -24 26 -20 47 14 71 20 15 28 17 24 7 -3 -8 -1 -18 5 -22
15 -9 6 62 -10 82 -7 7 -18 12 -25 9 -6 -2 -14 4 -17 14 -3 12 1 21 12 23 12
4 11 5 -4 6 -11 0 -28 -4 -37 -10z m61 -71 c-10 -19 -12 -19 -27 -4 -14 14
-15 18 -3 25 24 15 42 2 30 -21z m-79 -22 c0 -18 -15 -36 -31 -36 -10 0 -19
-5 -19 -10 0 -6 -8 -5 -20 2 -14 9 -16 14 -7 20 7 4 8 8 4 8 -5 0 -5 5 -2 10
6 9 75 15 75 6z m-60 -66 c0 -6 21 -34 48 -62 26 -28 39 -48 30 -45 -10 4 -25
10 -35 14 -11 4 -14 3 -9 -5 9 -15 1 -15 -26 -1 -21 11 -21 12 3 25 13 7 18
13 12 14 -7 0 -19 13 -28 30 -18 34 -18 40 -5 40 6 0 10 -5 10 -10z m40 -22
c0 -6 -7 -5 -15 2 -8 7 -15 17 -15 22 0 6 7 5 15 -2 8 -7 15 -17 15 -22z"/>
<path d="M300 348 c0 -9 5 -20 10 -23 13 -8 13 5 0 25 -8 13 -10 13 -10 -2z"/>
<path d="M80 225 c-7 -8 -9 -15 -6 -15 4 0 14 7 22 15 9 8 11 15 6 15 -5 0
-15 -7 -22 -15z"/>
<path d="M311 137 c-6 -8 -8 -17 -5 -20 7 -7 44 14 44 25 0 13 -27 9 -39 -5z"/>
<path d="M96 125 c-3 -9 0 -15 9 -15 9 0 12 6 9 15 -4 8 -7 15 -9 15 -2 0 -5
-7 -9 -15z"/>
</g>
</svg>
